<svg width="28" height="28" viewBox="0 0 28 28" fill="none" xmlns="http://www.w3.org/2000/svg">
<path d="M14.0002 18.2583L15.2252 17.0333L13.0668 14.8749H18.3752V13.1249H13.0668L15.2252 10.9666L14.0002 9.74159L9.74183 13.9999L14.0002 18.2583ZM14.0002 25.6666C12.4057 25.6666 10.8988 25.3603 9.47933 24.7478C8.05989 24.1353 6.8203 23.2992 5.76058 22.2395C4.70086 21.1798 3.86475 19.9402 3.25225 18.5208C2.63975 17.1013 2.3335 15.5944 2.3335 13.9999C2.3335 12.386 2.63975 10.8694 3.25225 9.44992C3.86475 8.03047 4.70086 6.79575 5.76058 5.74575C6.8203 4.69575 8.05989 3.8645 9.47933 3.252C10.8988 2.6395 12.4057 2.33325 14.0002 2.33325C15.6141 2.33325 17.1307 2.6395 18.5502 3.252C19.9696 3.8645 21.2043 4.69575 22.2543 5.74575C23.3043 6.79575 24.1356 8.03047 24.7481 9.44992C25.3606 10.8694 25.6668 12.386 25.6668 13.9999C25.6668 15.5944 25.3606 17.1013 24.7481 18.5208C24.1356 19.9402 23.3043 21.1798 22.2543 22.2395C21.2043 23.2992 19.9696 24.1353 18.5502 24.7478C17.1307 25.3603 15.6141 25.6666 14.0002 25.6666Z" fill="#264CEC" fill-opacity="0.2"/>
</svg>
