<svg width="30" height="30" viewBox="0 0 30 30" fill="none" xmlns="http://www.w3.org/2000/svg">
<path fill-rule="evenodd" clip-rule="evenodd" d="M15.0617 1.5625H14.9383C14.1072 1.56246 13.3911 1.56242 12.8177 1.63951C12.2031 1.72214 11.6141 1.90846 11.1363 2.38627C10.6585 2.86408 10.4721 3.45316 10.3895 4.0677C10.3124 4.64113 10.3125 5.35721 10.3125 6.18829L10.3125 9.22254C10.0193 9.1189 9.70372 9.06251 9.375 9.06251H5.625C4.0717 9.06251 2.8125 10.3217 2.8125 11.875V26.5625H2.5C1.98223 26.5625 1.5625 26.9822 1.5625 27.5C1.5625 28.0178 1.98223 28.4375 2.5 28.4375H27.5C28.0178 28.4375 28.4375 28.0178 28.4375 27.5C28.4375 26.9822 28.0178 26.5625 27.5 26.5625H27.1875V18.125C27.1875 16.5717 25.9283 15.3125 24.375 15.3125H20.625C20.2963 15.3125 19.9807 15.3689 19.6875 15.4725L19.6875 6.1883C19.6875 5.35721 19.6876 4.64114 19.6105 4.0677C19.5279 3.45316 19.3415 2.86408 18.8637 2.38627C18.3859 1.90846 17.7969 1.72214 17.1823 1.63951C16.6089 1.56242 15.8928 1.56246 15.0617 1.5625ZM25.3125 26.5625V18.125C25.3125 17.6072 24.8928 17.1875 24.375 17.1875H20.625C20.1072 17.1875 19.6875 17.6072 19.6875 18.125V26.5625H25.3125ZM17.8125 26.5625V6.25001C17.8125 5.33962 17.8105 4.75114 17.7522 4.31754C17.6975 3.91091 17.6093 3.78346 17.5379 3.71209C17.4665 3.64073 17.3391 3.55246 16.9325 3.49779C16.4989 3.4395 15.9104 3.43751 15 3.43751C14.0896 3.43751 13.5011 3.4395 13.0675 3.49779C12.6609 3.55246 12.5335 3.64073 12.4621 3.71209C12.3907 3.78346 12.3025 3.91091 12.2478 4.31754C12.1895 4.75114 12.1875 5.33962 12.1875 6.25001V26.5625H17.8125ZM10.3125 26.5625V11.875C10.3125 11.3572 9.89277 10.9375 9.375 10.9375H5.625C5.10723 10.9375 4.6875 11.3572 4.6875 11.875V26.5625H10.3125Z" fill="#1E1E1E" fill-opacity="0.6"/>
</svg>
