<svg width="30" height="30" viewBox="0 0 30 30" fill="none" xmlns="http://www.w3.org/2000/svg">
<path d="M25 17.1875C25 16.6697 24.5803 16.25 24.0625 16.25H20.3125C19.7947 16.25 19.375 16.6697 19.375 17.1875V25.625H17.5V5.3125C17.5 4.40211 17.498 3.81363 17.4397 3.38003C17.385 2.9734 17.2968 2.84595 17.2254 2.77459C17.154 2.70322 17.0266 2.61496 16.62 2.56029C16.1864 2.50199 15.5979 2.5 14.6875 2.5C13.7771 2.5 13.1886 2.50199 12.755 2.56029C12.3484 2.61496 12.221 2.70322 12.1496 2.77459C12.0782 2.84595 11.99 2.9734 11.9353 3.38003C11.877 3.81363 11.875 4.40211 11.875 5.3125V25.625H10V10.9375C10 10.4197 9.58027 10 9.0625 10H5.3125C4.79473 10 4.375 10.4197 4.375 10.9375V25.625H2.5H2.1875C1.66973 25.625 1.25 26.0447 1.25 26.5625C1.25 27.0803 1.66973 27.5 2.1875 27.5H27.1875C27.7053 27.5 28.125 27.0803 28.125 26.5625C28.125 26.0447 27.7053 25.625 27.1875 25.625H26.875H25V17.1875Z" fill="#264CEC"/>
</svg>
