<svg width="30" height="30" viewBox="0 0 30 30" fill="none" xmlns="http://www.w3.org/2000/svg">
<path fill-rule="evenodd" clip-rule="evenodd" d="M3.149 9.77843C2.5 10.9641 2.5 12.3944 2.5 15.2549V17.1562C2.5 22.0323 2.5 24.4704 3.96447 25.9852C5.42893 27.5 7.78595 27.5 12.5 27.5H17.5C22.214 27.5 24.5711 27.5 26.0355 25.9852C27.5 24.4704 27.5 22.0323 27.5 17.1562V15.2549C27.5 12.3944 27.5 10.9641 26.851 9.77843C26.202 8.59276 25.0163 7.85689 22.645 6.38516L20.145 4.83359C17.6383 3.27786 16.3849 2.5 15 2.5C13.6151 2.5 12.3617 3.27786 9.85504 4.83359L7.35504 6.38516C4.98368 7.85689 3.798 8.59276 3.149 9.77843ZM11.25 21.5625C10.7322 21.5625 10.3125 21.9822 10.3125 22.5C10.3125 23.0178 10.7322 23.4375 11.25 23.4375H18.75C19.2678 23.4375 19.6875 23.0178 19.6875 22.5C19.6875 21.9822 19.2678 21.5625 18.75 21.5625H11.25Z" fill="#264CEC"/>
</svg>
