<svg width="28" height="28" viewBox="0 0 28 28" fill="none" xmlns="http://www.w3.org/2000/svg">
<path d="M10.25 20.5625C9.73223 20.5625 9.3125 20.9822 9.3125 21.5C9.3125 22.0178 9.73223 22.4375 10.25 22.4375H17.75C18.2678 22.4375 18.6875 22.0178 18.6875 21.5C18.6875 20.9822 18.2678 20.5625 17.75 20.5625H10.25Z" fill="#1E1E1E" fill-opacity="0.6"/>
<path fill-rule="evenodd" clip-rule="evenodd" d="M14 0.5625C13.1149 0.5625 12.3107 0.816025 11.4382 1.2403C10.5948 1.65043 9.62053 2.25511 8.40357 3.0104L5.82036 4.61362C4.66886 5.32826 3.7468 5.9005 3.03613 6.44476C2.30019 7.00836 1.73494 7.58236 1.32664 8.32829C0.919193 9.07265 0.735709 9.86468 0.647737 10.8009C0.562482 11.7082 0.56249 12.8176 0.5625 14.209V16.2248C0.562483 18.6047 0.562469 20.4832 0.753379 21.952C0.949216 23.4587 1.3607 24.6751 2.29045 25.6368C3.22448 26.6029 4.41307 27.0346 5.88451 27.2392C7.31061 27.4375 9.13195 27.4375 11.4273 27.4375H16.5726C18.868 27.4375 20.6894 27.4375 22.1155 27.2392C23.5869 27.0346 24.7755 26.6029 25.7096 25.6368C26.6393 24.6751 27.0508 23.4587 27.2466 21.952C27.4375 20.4832 27.4375 18.6047 27.4375 16.2248V14.209C27.4375 12.8177 27.4375 11.7082 27.3523 10.8009C27.2643 9.86468 27.0808 9.07265 26.6734 8.32829C26.2651 7.58236 25.6998 7.00836 24.9639 6.44476C24.2532 5.90051 23.3312 5.32827 22.1797 4.61364L19.5964 3.01039C18.3795 2.25511 17.4052 1.65043 16.5618 1.2403C15.6893 0.816024 14.8851 0.5625 14 0.5625ZM9.34941 4.63015C10.6191 3.84213 11.5119 3.28942 12.2582 2.92649C12.9853 2.57291 13.5002 2.4375 14 2.4375C14.4998 2.4375 15.0147 2.57291 15.7418 2.92649C16.4881 3.28942 17.3809 3.84213 18.6506 4.63015L21.1506 6.18172C22.3516 6.92712 23.1949 7.45169 23.8239 7.93337C24.4358 8.40205 24.7879 8.78882 25.0286 9.22857C25.2702 9.66987 25.4112 10.1858 25.4855 10.9763C25.5615 11.7857 25.5625 12.8073 25.5625 14.2549V16.1562C25.5625 18.6199 25.5606 20.3765 25.3873 21.7103C25.217 23.0204 24.8962 23.7805 24.3615 24.3336C23.8311 24.8822 23.1089 25.208 21.8572 25.3821C20.5752 25.5604 18.8844 25.5625 16.5 25.5625H11.5C9.11559 25.5625 7.42479 25.5604 6.14278 25.3821C4.89107 25.208 4.16892 24.8822 3.63849 24.3336C3.10376 23.7805 2.78302 23.0204 2.61274 21.7103C2.43936 20.3765 2.4375 18.6199 2.4375 16.1562V14.2549C2.4375 12.8073 2.43845 11.7857 2.51451 10.9763C2.58879 10.1858 2.72981 9.66987 2.97136 9.22857C3.21207 8.78882 3.56416 8.40205 4.17615 7.93337C4.80512 7.45169 5.64837 6.92712 6.84941 6.18172L9.34941 4.63015Z" fill="#1E1E1E" fill-opacity="0.6"/>
</svg>
