<svg width="24" height="24" viewBox="0 0 24 24" fill="none" xmlns="http://www.w3.org/2000/svg">
<path fill-rule="evenodd" clip-rule="evenodd" d="M6.66667 7.45455V9.28875C6.6069 9.29198 6.54911 9.29586 6.49331 9.30052C6.14189 9.32988 5.79237 9.39472 5.45603 9.56998C4.95426 9.83146 4.54631 10.2487 4.29065 10.7618C4.11928 11.1058 4.05589 11.4633 4.02718 11.8227C3.99997 12.1632 3.99999 12.5767 4 13.0559V18.2169C3.99999 18.6961 3.99997 19.1095 4.02718 19.45C4.05589 19.8094 4.11928 20.1669 4.29065 20.5109C4.54631 21.0241 4.95426 21.4413 5.45603 21.7027C5.79237 21.878 6.14189 21.9428 6.49331 21.9722C6.82624 22 7.23054 22 7.69907 22H16.301C16.7696 22 17.1738 22 17.5067 21.9722C17.8581 21.9428 18.2076 21.878 18.544 21.7027C19.0457 21.4413 19.4537 21.0241 19.7094 20.5109C19.8807 20.1669 19.9441 19.8094 19.9728 19.45C20 19.1095 20 18.6961 20 18.2169V13.0559C20 12.5766 20 12.1632 19.9728 11.8227C19.9441 11.4633 19.8807 11.1058 19.7094 10.7618C19.4537 10.2487 19.0457 9.83146 18.544 9.56998C18.2076 9.39472 17.8581 9.32988 17.5067 9.30052C17.4509 9.29586 17.3931 9.29198 17.3333 9.28875V7.45455C17.3333 4.44208 14.9455 2 12 2C9.05448 2 6.66667 4.44208 6.66667 7.45455ZM12 3.81818C10.0363 3.81818 8.44445 5.44624 8.44445 7.45455V9.27273H15.5556V7.45455C15.5556 5.44624 13.9637 3.81818 12 3.81818ZM11.1111 13.8182V17.4545H12.8889V13.8182H11.1111Z" fill="#264CEC"/>
</svg>
