<svg width="18" height="18" viewBox="0 0 18 18" fill="none" xmlns="http://www.w3.org/2000/svg">
<path d="M7.5 14.25C7.5 14.3485 7.48061 14.446 7.44292 14.537C7.40523 14.628 7.34998 14.7107 7.28034 14.7803C7.21069 14.85 7.12801 14.9052 7.03702 14.9429C6.94602 14.9806 6.84849 15 6.75 15H4.5V17.25C4.5 17.4489 4.42098 17.6397 4.28033 17.7803C4.13968 17.921 3.94891 18 3.75 18C3.55109 18 3.36032 17.921 3.21967 17.7803C3.07902 17.6397 3 17.4489 3 17.25V15H0.75C0.551088 15 0.360322 14.921 0.21967 14.7803C0.0790178 14.6397 0 14.4489 0 14.25C0 14.0511 0.0790178 13.8603 0.21967 13.7197C0.360322 13.579 0.551088 13.5 0.75 13.5H3V11.25C3 11.0511 3.07902 10.8603 3.21967 10.7197C3.36032 10.579 3.55109 10.5 3.75 10.5C3.94891 10.5 4.13968 10.579 4.28033 10.7197C4.42098 10.8603 4.5 11.0511 4.5 11.25V13.5H6.75C6.84849 13.5 6.94602 13.5194 7.03702 13.5571C7.12801 13.5948 7.21069 13.65 7.28034 13.7197C7.34998 13.7893 7.40523 13.872 7.44292 13.963C7.48061 14.054 7.5 14.1515 7.5 14.25ZM6.75 2.99999H0.75C0.551088 2.99999 0.360322 3.07901 0.21967 3.21966C0.0790178 3.36031 0 3.55108 0 3.74999C0 3.9489 0.0790178 4.13967 0.21967 4.28032C0.360322 4.42097 0.551088 4.49999 0.75 4.49999H6.75C6.94891 4.49999 7.13968 4.42097 7.28033 4.28032C7.42098 4.13967 7.5 3.9489 7.5 3.74999C7.5 3.55108 7.42098 3.36031 7.28033 3.21966C7.13968 3.07901 6.94891 2.99999 6.75 2.99999ZM11.25 13.5062H17.25C17.4489 13.5062 17.6397 13.4272 17.7803 13.2865C17.921 13.1459 18 12.9551 18 12.7562C18 12.5573 17.921 12.3665 17.7803 12.2259C17.6397 12.0852 17.4489 12.0062 17.25 12.0062H11.25C11.0511 12.0062 10.8603 12.0852 10.7197 12.2259C10.579 12.3665 10.5 12.5573 10.5 12.7562C10.5 12.9551 10.579 13.1459 10.7197 13.2865C10.8603 13.4272 11.0511 13.5062 11.25 13.5062ZM17.25 14.9938H11.25C11.0511 14.9938 10.8603 15.0728 10.7197 15.2134C10.579 15.3541 10.5 15.5449 10.5 15.7438C10.5 15.9427 10.579 16.1334 10.7197 16.2741C10.8603 16.4147 11.0511 16.4938 11.25 16.4938H17.25C17.4489 16.4938 17.6397 16.4147 17.7803 16.2741C17.921 16.1334 18 15.9427 18 15.7438C18 15.5449 17.921 15.3541 17.7803 15.2134C17.6397 15.0728 17.4489 14.9938 17.25 14.9938ZM11.4697 6.53031C11.5393 6.59995 11.622 6.6552 11.713 6.69289C11.804 6.73059 11.9015 6.74999 12 6.74999C12.0985 6.74999 12.196 6.73059 12.287 6.69289C12.378 6.6552 12.4607 6.59995 12.5303 6.53031L14.25 4.81063L15.9697 6.53031C16.0393 6.60002 16.122 6.65533 16.213 6.69308C16.304 6.73083 16.4016 6.75027 16.5001 6.75031C16.5986 6.75034 16.6962 6.73095 16.7872 6.69326C16.8783 6.65557 16.961 6.60031 17.0307 6.53064C17.1003 6.46097 17.1556 6.37825 17.1933 6.28722C17.231 6.19618 17.2503 6.09861 17.2503 6.00009C17.2503 5.90156 17.2308 5.804 17.1931 5.71299C17.1553 5.62198 17.1 5.5393 17.0303 5.46967L15.3106 3.74999L17.0303 2.03031C17.1708 1.88963 17.2497 1.69891 17.2497 1.50009C17.2496 1.30126 17.1706 1.11059 17.03 0.970001C16.8894 0.829409 16.6987 0.750398 16.4999 0.750336C16.3011 0.750273 16.1104 0.829165 15.9697 0.969669L14.25 2.68935L12.5303 0.969669C12.3896 0.829165 12.1989 0.750273 12.0001 0.750336C11.8013 0.750398 11.6106 0.829409 11.47 0.970001C11.3294 1.11059 11.2504 1.30126 11.2503 1.50009C11.2503 1.69891 11.3292 1.88963 11.4697 2.03031L13.1894 3.74999L11.4697 5.46967C11.4 5.53931 11.3448 5.62198 11.3071 5.71298C11.2694 5.80397 11.25 5.9015 11.25 5.99999C11.25 6.09848 11.2694 6.19601 11.3071 6.287C11.3448 6.37799 11.4 6.46067 11.4697 6.53031Z" fill="#1E1E1E"/>
</svg>
