<svg width="18" height="18" viewBox="0 0 18 18" fill="none" xmlns="http://www.w3.org/2000/svg">
<path d="M10.5 11.25C10.7125 11.25 10.8969 11.1719 11.0531 11.0156C11.2094 10.8594 11.2875 10.675 11.2875 10.4625C11.2875 10.25 11.2094 10.0656 11.0531 9.90938C10.8969 9.75313 10.7125 9.675 10.5 9.675C10.2875 9.675 10.1031 9.75313 9.94688 9.90938C9.79063 10.0656 9.7125 10.25 9.7125 10.4625C9.7125 10.675 9.79063 10.8594 9.94688 11.0156C10.1031 11.1719 10.2875 11.25 10.5 11.25ZM9.9375 8.85H11.0625C11.0625 8.4875 11.1 8.22188 11.175 8.05313C11.25 7.88438 11.425 7.6625 11.7 7.3875C12.075 7.0125 12.325 6.70938 12.45 6.47813C12.575 6.24688 12.6375 5.975 12.6375 5.6625C12.6375 5.1 12.4406 4.64063 12.0469 4.28438C11.6531 3.92813 11.1375 3.75 10.5 3.75C9.9875 3.75 9.54063 3.89375 9.15938 4.18125C8.77813 4.46875 8.5125 4.85 8.3625 5.325L9.375 5.7375C9.4875 5.425 9.64062 5.19063 9.83438 5.03438C10.0281 4.87813 10.25 4.8 10.5 4.8C10.8 4.8 11.0438 4.88438 11.2313 5.05313C11.4188 5.22188 11.5125 5.45 11.5125 5.7375C11.5125 5.9125 11.4625 6.07812 11.3625 6.23438C11.2625 6.39062 11.0875 6.5875 10.8375 6.825C10.425 7.1875 10.1719 7.47188 10.0781 7.67813C9.98438 7.88438 9.9375 8.275 9.9375 8.85ZM6 13.5C5.5875 13.5 5.23438 13.3531 4.94063 13.0594C4.64688 12.7656 4.5 12.4125 4.5 12V3C4.5 2.5875 4.64688 2.23438 4.94063 1.94063C5.23438 1.64687 5.5875 1.5 6 1.5H15C15.4125 1.5 15.7656 1.64687 16.0594 1.94063C16.3531 2.23438 16.5 2.5875 16.5 3V12C16.5 12.4125 16.3531 12.7656 16.0594 13.0594C15.7656 13.3531 15.4125 13.5 15 13.5H6ZM6 12H15V3H6V12ZM3 16.5C2.5875 16.5 2.23438 16.3531 1.94063 16.0594C1.64687 15.7656 1.5 15.4125 1.5 15V4.5H3V15H13.5V16.5H3Z" fill="white"/>
</svg>
