<svg width="108" height="108" viewBox="0 0 108 108" fill="none" xmlns="http://www.w3.org/2000/svg">
<g filter="url(#filter0_d_202_28)">
<rect x="4" width="100" height="100" rx="50" fill="white"/>
<path d="M86.1234 39.5242L56.4859 30.374C54.8709 29.8753 53.1283 29.8753 51.5144 30.374L21.8759 39.5242C19.3747 40.2961 19.3747 43.6199 21.8759 44.3918L27.0428 45.987C25.9091 47.3953 25.2121 49.1132 25.1431 50.9945C24.1199 51.5839 23.3995 52.6473 23.3995 53.9168C23.3995 55.0678 24.003 56.0362 24.8721 56.6554L22.1595 68.9212C21.9237 69.9878 22.7312 71 23.8181 71H29.7798C30.8678 71 31.6753 69.9878 31.4395 68.9212L28.7269 56.6554C29.596 56.0362 30.1995 55.0678 30.1995 53.9168C30.1995 52.6814 29.5121 51.6479 28.5356 51.0479C28.6164 49.4442 29.4324 48.0263 30.7339 47.1273L51.5133 53.5431C52.476 53.8399 54.3226 54.2104 56.4848 53.5431L86.1234 44.3929C88.6255 43.6199 88.6255 40.2972 86.1234 39.5242ZM57.4836 56.8092C54.4522 57.7445 51.8693 57.2277 50.5146 56.8092L35.1062 52.0526L33.5995 64.1667C33.5995 67.941 42.7328 71 53.9996 71C65.2664 71 74.3997 67.941 74.3997 64.1667L72.8931 52.0515L57.4836 56.8092Z" fill="#264CEC"/>
</g>
<defs>
<filter id="filter0_d_202_28" x="0" y="0" width="108" height="108" filterUnits="userSpaceOnUse" color-interpolation-filters="sRGB">
<feFlood flood-opacity="0" result="BackgroundImageFix"/>
<feColorMatrix in="SourceAlpha" type="matrix" values="0 0 0 0 0 0 0 0 0 0 0 0 0 0 0 0 0 0 127 0" result="hardAlpha"/>
<feOffset dy="4"/>
<feGaussianBlur stdDeviation="2"/>
<feComposite in2="hardAlpha" operator="out"/>
<feColorMatrix type="matrix" values="0 0 0 0 0 0 0 0 0 0 0 0 0 0 0 0 0 0 0.25 0"/>
<feBlend mode="normal" in2="BackgroundImageFix" result="effect1_dropShadow_202_28"/>
<feBlend mode="normal" in="SourceGraphic" in2="effect1_dropShadow_202_28" result="shape"/>
</filter>
</defs>
</svg>
