<svg width="30" height="30" viewBox="0 0 30 30" fill="none" xmlns="http://www.w3.org/2000/svg">
<path d="M19.8375 15L13.35 8.5125L11.775 10.125L16.65 15L11.775 19.875L13.35 21.4875L19.8375 15ZM30 15C30 17.05 29.6063 18.9875 28.8188 20.8125C28.0313 22.6375 26.9563 24.2312 25.5938 25.5938C24.2313 26.9562 22.6375 28.0312 20.8125 28.8187C18.9875 29.6062 17.05 30 15 30C12.925 30 10.975 29.6062 9.15 28.8187C7.325 28.0312 5.7375 26.9562 4.3875 25.5938C3.0375 24.2312 1.96875 22.6375 1.18125 20.8125C0.39375 18.9875 0 17.05 0 15C0 12.925 0.39375 10.975 1.18125 9.15C1.96875 7.325 3.0375 5.7375 4.3875 4.3875C5.7375 3.0375 7.325 1.96875 9.15 1.18125C10.975 0.393749 12.925 -1.90735e-06 15 -1.90735e-06C17.05 -1.90735e-06 18.9875 0.393749 20.8125 1.18125C22.6375 1.96875 24.2313 3.0375 25.5938 4.3875C26.9563 5.7375 28.0313 7.325 28.8188 9.15C29.6063 10.975 30 12.925 30 15ZM27.75 15C27.75 11.45 26.5063 8.4375 24.0188 5.9625C21.5312 3.4875 18.525 2.25 15 2.25C11.45 2.25 8.4375 3.4875 5.9625 5.9625C3.4875 8.4375 2.25 11.45 2.25 15C2.25 18.525 3.4875 21.5312 5.9625 24.0187C8.4375 26.5062 11.45 27.75 15 27.75C18.525 27.75 21.5312 26.5062 24.0188 24.0187C26.5063 21.5312 27.75 18.525 27.75 15Z" fill="#1E1E1E"/>
</svg>
