<svg width="30" height="30" viewBox="0 0 30 30" fill="none" xmlns="http://www.w3.org/2000/svg">
<path d="M10.1625 15L16.65 8.5125L18.225 10.125L13.35 15L18.225 19.875L16.65 21.4875L10.1625 15ZM-1.90735e-06 15C-1.90735e-06 17.05 0.393749 18.9875 1.18125 20.8125C1.96875 22.6375 3.04375 24.2312 4.40625 25.5938C5.76875 26.9562 7.3625 28.0312 9.1875 28.8187C11.0125 29.6062 12.95 30 15 30C17.075 30 19.025 29.6062 20.85 28.8187C22.675 28.0312 24.2625 26.9562 25.6125 25.5938C26.9625 24.2312 28.0312 22.6375 28.8187 20.8125C29.6062 18.9875 30 17.05 30 15C30 12.925 29.6062 10.975 28.8187 9.15C28.0312 7.325 26.9625 5.7375 25.6125 4.3875C24.2625 3.0375 22.675 1.96875 20.85 1.18125C19.025 0.393749 17.075 -1.90735e-06 15 -1.90735e-06C12.95 -1.90735e-06 11.0125 0.393749 9.1875 1.18125C7.3625 1.96875 5.76875 3.0375 4.40625 4.3875C3.04375 5.7375 1.96875 7.325 1.18125 9.15C0.393749 10.975 -1.90735e-06 12.925 -1.90735e-06 15ZM2.25 15C2.25 11.45 3.49375 8.4375 5.98125 5.9625C8.46875 3.4875 11.475 2.25 15 2.25C18.55 2.25 21.5625 3.4875 24.0375 5.9625C26.5125 8.4375 27.75 11.45 27.75 15C27.75 18.525 26.5125 21.5312 24.0375 24.0187C21.5625 26.5062 18.55 27.75 15 27.75C11.475 27.75 8.46875 26.5062 5.98125 24.0187C3.49375 21.5312 2.25 18.525 2.25 15Z" fill="#1E1E1E"/>
</svg>
