<svg width="30" height="30" viewBox="0 0 30 30" fill="none" xmlns="http://www.w3.org/2000/svg">
<g clip-path="url(#clip0_782_481)">
<g filter="url(#filter0_d_782_481)">
<path fill-rule="evenodd" clip-rule="evenodd" d="M9.93141 1.5625H20.0686C21.7781 1.56247 23.156 1.56245 24.2397 1.70815C25.3648 1.85943 26.3122 2.18304 27.0646 2.93544C27.817 3.68783 28.1406 4.63518 28.2918 5.76031C28.4375 6.84402 28.4375 8.22192 28.4375 9.93141V15.0686C28.4375 16.7781 28.4375 18.156 28.2918 19.2397C28.1406 20.3648 27.817 21.3122 27.0646 22.0646C26.4422 22.687 25.6836 23.0182 24.7951 23.1991C23.9324 23.3748 22.8917 23.419 21.6595 23.4321L21.6525 23.4322L21.3719 23.433C21.2511 23.8133 21.0544 24.175 20.7818 24.4948C20.618 24.687 20.519 24.9261 20.4989 25.1779C20.3787 26.6833 19.1833 27.8787 17.6779 27.9989C17.4261 28.019 17.187 28.118 16.9948 28.2818C15.8453 29.2614 14.1547 29.2614 13.0052 28.2818C12.813 28.118 12.5739 28.019 12.3221 27.9989C10.8167 27.8787 9.62126 26.6833 9.50113 25.1779C9.48103 24.9261 9.38202 24.687 9.21817 24.4948C8.94602 24.1754 8.74949 23.8143 8.62856 23.4346C7.32815 23.4258 6.23963 23.3906 5.34544 23.2263C4.39794 23.0523 3.5916 22.7207 2.93544 22.0646C2.18304 21.3122 1.85943 20.3648 1.70816 19.2397C1.56245 18.156 1.56247 16.7781 1.5625 15.0686V9.93141C1.56247 8.22192 1.56245 6.84402 1.70815 5.76031C1.85943 4.63518 2.18304 3.68783 2.93544 2.93544C3.68783 2.18304 4.63518 1.85943 5.76031 1.70816C6.84402 1.56245 8.22192 1.56247 9.93141 1.5625ZM8.63043 21.5596C8.75151 21.182 8.94742 20.823 9.21817 20.5052C9.38202 20.313 9.48103 20.0739 9.50113 19.8221C9.62126 18.3167 10.8167 17.1213 12.3221 17.0011C12.5739 16.981 12.813 16.882 13.0052 16.7182C14.1547 15.7386 15.8453 15.7386 16.9948 16.7182C17.187 16.882 17.4261 16.981 17.6779 17.0011C19.1833 17.1213 20.3787 18.3167 20.4989 19.8221C20.519 20.0739 20.618 20.313 20.7818 20.5052C21.0522 20.8225 21.248 21.181 21.3691 21.558L21.643 21.5572C22.8746 21.544 23.7528 21.4979 24.421 21.3618C25.0641 21.2309 25.4488 21.0287 25.7387 20.7387C26.0847 20.3928 26.3103 19.9071 26.4336 18.9898C26.5605 18.0457 26.5625 16.7943 26.5625 15V10C26.5625 8.20573 26.5605 6.95434 26.4336 6.01015C26.3103 5.09293 26.0847 4.60722 25.7387 4.26126C25.3928 3.91531 24.9071 3.68975 23.9899 3.56644C23.0457 3.43949 21.7943 3.4375 20 3.4375H10C8.20573 3.4375 6.95434 3.43949 6.01015 3.56644C5.09293 3.68975 4.60722 3.91531 4.26126 4.26126C3.91531 4.60722 3.68975 5.09293 3.56644 6.01015C3.43949 6.95434 3.4375 8.20573 3.4375 10V15C3.4375 16.7943 3.43949 18.0457 3.56644 18.9899C3.68975 19.9071 3.91531 20.3928 4.26126 20.7387C4.56558 21.0431 4.97567 21.252 5.68418 21.3822C6.39692 21.5131 7.32907 21.5505 8.63043 21.5596ZM10.3125 7.5C10.3125 6.98223 10.7322 6.5625 11.25 6.5625H18.75C19.2678 6.5625 19.6875 6.98223 19.6875 7.5C19.6875 8.01777 19.2678 8.4375 18.75 8.4375H11.25C10.7322 8.4375 10.3125 8.01777 10.3125 7.5ZM7.8125 11.875C7.8125 11.3572 8.23223 10.9375 8.75 10.9375H21.25C21.7678 10.9375 22.1875 11.3572 22.1875 11.875C22.1875 12.3928 21.7678 12.8125 21.25 12.8125H8.75C8.23223 12.8125 7.8125 12.3928 7.8125 11.875ZM15.7786 18.1453C15.3299 17.7629 14.6701 17.7629 14.2214 18.1453C13.7288 18.565 13.1164 18.8187 12.4713 18.8702C11.8837 18.9171 11.4171 19.3837 11.3702 19.9713C11.3187 20.6164 11.065 21.2288 10.6453 21.7214C10.2629 22.1701 10.2629 22.8299 10.6453 23.2786C11.065 23.7712 11.3187 24.3836 11.3702 25.0287C11.4171 25.6163 11.8837 26.0829 12.4713 26.1298C13.1164 26.1813 13.7288 26.435 14.2214 26.8547C14.6701 27.2371 15.3299 27.2371 15.7786 26.8547C16.2712 26.435 16.8836 26.1813 17.5287 26.1298C18.1163 26.0829 18.5829 25.6163 18.6298 25.0287C18.6813 24.3836 18.935 23.7712 19.3547 23.2786C19.7371 22.8299 19.7371 22.1701 19.3547 21.7214C18.935 21.2288 18.6813 20.6164 18.6298 19.9713C18.5829 19.3837 18.1163 18.9171 17.5287 18.8702C16.8836 18.8187 16.2712 18.565 15.7786 18.1453ZM16.2353 20.5646C16.6138 20.2114 17.2071 20.2318 17.5604 20.6103C17.9136 20.9888 17.8932 21.5821 17.5147 21.9354L14.8361 24.4354C14.4759 24.7715 13.917 24.7715 13.5568 24.4354L12.4853 23.4354C12.1068 23.0821 12.0864 22.4888 12.4396 22.1103C12.7929 21.7318 13.3862 21.7114 13.7647 22.0646L14.1964 22.4676L16.2353 20.5646Z" fill="#1E1E1E" fill-opacity="0.6" shape-rendering="crispEdges"/>
</g>
</g>
<defs>
<filter id="filter0_d_782_481" x="-2.4375" y="1.5625" width="34.875" height="35.454" filterUnits="userSpaceOnUse" color-interpolation-filters="sRGB">
<feFlood flood-opacity="0" result="BackgroundImageFix"/>
<feColorMatrix in="SourceAlpha" type="matrix" values="0 0 0 0 0 0 0 0 0 0 0 0 0 0 0 0 0 0 127 0" result="hardAlpha"/>
<feOffset dy="4"/>
<feGaussianBlur stdDeviation="2"/>
<feComposite in2="hardAlpha" operator="out"/>
<feColorMatrix type="matrix" values="0 0 0 0 0 0 0 0 0 0 0 0 0 0 0 0 0 0 0.25 0"/>
<feBlend mode="normal" in2="BackgroundImageFix" result="effect1_dropShadow_782_481"/>
<feBlend mode="normal" in="SourceGraphic" in2="effect1_dropShadow_782_481" result="shape"/>
</filter>
<clipPath id="clip0_782_481">
<rect width="30" height="30" fill="white"/>
</clipPath>
</defs>
</svg>
