<svg width="30" height="30" viewBox="0 0 30 30" fill="none" xmlns="http://www.w3.org/2000/svg">
<path fill-rule="evenodd" clip-rule="evenodd" d="M2.5 15V10C2.5 6.46447 2.5 4.6967 3.59835 3.59835C4.6967 2.5 6.46447 2.5 10 2.5H20C23.5355 2.5 25.3033 2.5 26.4017 3.59835C27.5 4.6967 27.5 6.46447 27.5 10V15C27.5 18.5355 27.5 20.3033 26.4017 21.4017C25.5937 22.2096 24.4234 22.4232 22.4537 22.4797C22.4491 21.5599 22.1296 20.6414 21.4951 19.8969C21.4593 19.8548 21.4376 19.8025 21.4332 19.7473C21.2764 17.783 19.7166 16.2231 17.7522 16.0664C17.6971 16.062 17.6447 16.0403 17.6026 16.0044C16.1028 14.7262 13.8968 14.7262 12.3969 16.0044C12.3548 16.0403 12.3025 16.062 12.2473 16.0664C10.283 16.2231 8.72312 17.783 8.56637 19.7473C8.56197 19.8025 8.54028 19.8548 8.5044 19.8969C7.86993 20.6414 7.55041 21.5599 7.54583 22.4797C5.57638 22.4232 4.40626 22.2096 3.59835 21.4016C2.5 20.3033 2.5 18.5355 2.5 15ZM10.3125 7.5C10.3125 6.98223 10.7322 6.5625 11.25 6.5625H18.75C19.2678 6.5625 19.6875 6.98223 19.6875 7.5C19.6875 8.01777 19.2678 8.4375 18.75 8.4375H11.25C10.7322 8.4375 10.3125 8.01777 10.3125 7.5ZM8.75 10.9375C8.23223 10.9375 7.8125 11.3572 7.8125 11.875C7.8125 12.3928 8.23223 12.8125 8.75 12.8125H21.25C21.7678 12.8125 22.1875 12.3928 22.1875 11.875C22.1875 11.3572 21.7678 10.9375 21.25 10.9375H8.75Z" fill="#264CEC"/>
<path fill-rule="evenodd" clip-rule="evenodd" d="M16.3864 17.4315C15.5874 16.7505 14.4121 16.7505 13.6131 17.4315C13.2707 17.7233 12.8449 17.8996 12.3965 17.9354C11.35 18.0189 10.5189 18.85 10.4354 19.8965C10.3996 20.3449 10.2233 20.7707 9.93149 21.1131C9.25054 21.9121 9.25054 23.0874 9.93149 23.8864C10.2233 24.2289 10.3996 24.6546 10.4354 25.1031C10.5189 26.1496 11.35 26.9806 12.3965 27.0641C12.8449 27.0999 13.2707 27.2763 13.6131 27.5681C14.4121 28.249 15.5874 28.249 16.3864 27.5681C16.7289 27.2763 17.1546 27.0999 17.6031 27.0641C18.6496 26.9806 19.4806 26.1496 19.5641 25.1031C19.5999 24.6546 19.7763 24.2289 20.0681 23.8864C20.749 23.0874 20.749 21.9121 20.0681 21.1131C19.7763 20.7707 19.5999 20.3449 19.5641 19.8965C19.4806 18.85 18.6496 18.0189 17.6031 17.9354C17.1546 17.8996 16.7289 17.7233 16.3864 17.4315ZM17.5147 21.9354C17.8932 21.5821 17.9136 20.9888 17.5604 20.6103C17.2071 20.2318 16.6138 20.2114 16.2353 20.5646L14.1964 22.4676L13.7647 22.0646C13.3862 21.7114 12.7929 21.7318 12.4396 22.1103C12.0864 22.4888 12.1068 23.0821 12.4853 23.4354L13.5568 24.4354C13.917 24.7715 14.4759 24.7715 14.8361 24.4354L17.5147 21.9354Z" fill="#264CEC"/>
</svg>
